#!OML:ASF E:\I on waltz\AllaLogoMonkeySwing\Project 1\Capture day 1\Session 1\Subject1.ASF
:FULLY-SPECIFIED
:DEGREES
593
root -0.304474 17.9125 -3.46563 181.917 175.963 178.506
lowerback 4.97496 -1.34331 -3.2826
upperback -0.518119 -1.93345 1.78985
thorax -3.15533 -0.890909 3.84017
lowerneck -7.31457 -9.30511 -9.5157
upperneck 13.0397 -12.2934 6.04796
head 6.11704 -6.05045 2.42864
rclavicle -3.82971e-015 -3.27001e-014
rhumerus -33.2721 -27.6368 -70.9861
rradius 22.6079
rwrist 12.5697
rhand -15.0661 -45.2621
rfingers 7.12502
rthumb 11.101 -74.9485
lclavicle -3.82971e-015 -3.27001e-014
lhumerus -43.8939 28.2073 72.3842
lradius 38.7772
lwrist -3.95333
lhand -16.0044 -8.07582
lfingers 7.12502
lthumb 10.1959 21.6571
rfemur -0.129446 0.167611 18.0395
rtibia 15.4738
rfoot -14.2605 -9.96616
rtoes 9.36026
lfemur 2.76994 -1.6518 -13.3696
ltibia 10.0527
lfoot -13.7887 2.20303
ltoes -32.8737
594
root -0.302735 17.9126 -3.4651 181.916 175.936 178.485
lowerback 4.9752 -1.32519 -3.24365
upperback -0.50767 -1.90594 1.81822
thorax -3.14738 -0.877996 3.84552
lowerneck -7.3198 -9.3064 -9.44137
upperneck 12.9847 -12.2854 5.94632
head 6.08868 -6.04979 2.3876
rclavicle -3.37002e-015 5.1684e-015
rhumerus -33.2764 -27.7283 -70.8354
rradius 22.6151
rwrist 12.6289
rhand -15.0726 -45.2323
rfingers 7.12502
rthumb 11.0947 -74.919
lclavicle -3.37002e-015 5.1684e-015
lhumerus -43.893 27.5572 72.9754
lradius 39.4313
lwrist -3.33596
lhand -15.9262 -7.58973
lfingers 7.12502
lthumb 10.2713 22.1395
rfemur -0.136662 0.149915 18.0584
rtibia 15.5001
rfoot -14.2588 -9.99561
rtoes 9.15871
lfemur 2.76276 -1.67288 -13.3564
ltibia 10.0537
lfoot -13.7929 2.21456
ltoes -32.9545
595
root -0.302002 17.9128 -3.46525 181.905 175.905 178.491
lowerback 4.98762 -1.30139 -3.25809
upperback -0.492225 -1.87434 1.84969
thorax -3.13975 -0.862163 3.88426
lowerneck -7.38993 -9.31854 -9.40644
upperneck 13.0178 -12.2937 5.89408
head 6.10616 -6.05389 2.36143
rclavicle -1.94126e-014 -2.48481e-015
rhumerus -33.2491 -27.8932 -70.6241
rradius 22.5232
rwrist 12.8587
rhand -15.2515 -45.1043
rfingers 7.12502
rthumb 10.9222 -74.8002
lclavicle -1.94126e-014 -2.48481e-015
lhumerus -43.8665 26.9986 73.5402
lradius 39.9907
lwrist -2.81553
lhand -15.9 -7.09008
lfingers 7.12502
lthumb 10.2966 22.6379
rfemur -0.119873 0.192409 18.0601
rtibia 15.4911
rfoot -14.2307 -10.0483
rtoes 9.23582
lfemur 2.76026 -1.69393 -13.3628
ltibia 10.0688
lfoot -13.8144 2.19524
ltoes -32.8416
596
root -0.301612 17.9129 -3.46631 181.89 175.879 178.514
lowerback 5.00162 -1.29278 -3.31949
upperback -0.476413 -1.86586 1.88335
thorax -3.12907 -0.857132 3.95349
lowerneck -7.38448 -9.32319 -9.39781
upperneck 13.0126 -12.3035 5.90853
head 6.10471 -6.05736 2.36398
rclavicle 6.18096e-015 2.17669e-014
rhumerus -33.2173 -28.1684 -70.3433
rradius 22.3815
rwrist 13.2618
rhand -15.1784 -44.9434
rfingers 7.12502
rthumb 10.9927 -74.6356
lclavicle 6.18096e-015 2.17669e-014
lhumerus -43.862 26.583 74.0045
lradius 40.3422
lwrist -2.49643
lhand -16.1468 -7.16488
lfingers 7.12502
lthumb 10.0585 22.5747
rfemur -0.109203 0.239178 18.0415
rtibia 15.4966
rfoot -14.2086 -10.0948
rtoes 9.43999
lfemur 2.7663 -1.72101 -13.3937
ltibia 10.0742
lfoot -13.8074 2.17243
ltoes -32.7135
597
root -0.300917 17.9128 -3.46733 181.897 175.87 178.518
lowerback 5.00586 -1.281 -3.35345
upperback -0.477504 -1.85121 1.91957
thorax -3.13176 -0.848887 4.00953
lowerneck -7.30037 -9.3399 -9.39666
upperneck 12.948 -12.3356 5.94111
head 6.07451 -6.07267 2.37577
rclavicle -9.93923e-016 -2.49475e-014
rhumerus -33.1825 -28.3154 -70.1261
rradius 22.2958
rwrist 13.4585
rhand -15.0111 -44.9604
rfingers 7.12502
rthumb 11.154 -74.6439
lclavicle -9.93923e-016 -2.49475e-014
lhumerus -43.8439 26.2931 74.3766
lradius 40.5827
lwrist -2.32274
lhand -16.2659 -7.35599
lfingers 7.12502
lthumb 9.94361 22.3892
rfemur -0.133592 0.254443 18.0385
rtibia 15.5185
rfoot -14.1931 -10.1114
rtoes 9.47254
lfemur 2.74016 -1.69063 -13.3961
ltibia 10.0901
lfoot -13.8146 2.14414
ltoes -32.6851
598
root -0.299797 17.9129 -3.4675 181.892 175.851 178.483
lowerback 5.02025 -1.26909 -3.32468
upperback -0.478127 -1.83267 1.96008
thorax -3.14181 -0.839572 4.03462
lowerneck -7.25058 -9.34761 -9.35396
upperneck 12.9065 -12.3491 5.91049
head 6.04929 -6.08042 2.36169
rclavicle 4.10615e-015 1.11319e-014
rhumerus -33.0885 -28.2991 -70.0017
rradius 22.1869
rwrist 13.457
rhand -15.11 -45.107
rfingers 7.12502
rthumb 11.0587 -74.7957
lclavicle 4.10615e-015 1.11319e-014
lhumerus -43.8088 26.104 74.6804
lradius 40.8509
lwrist -2.1926
lhand -16.0536 -7.10908
lfingers 7.12502
lthumb 10.1484 22.6262
rfemur -0.117038 0.26106 18.0857
rtibia 15.4963
rfoot -14.2254 -10.1691
rtoes 9.20895
lfemur 2.71633 -1.61263 -13.3368
ltibia 10.1303
lfoot -13.8585 2.07116
ltoes -32.7047
599
root -0.298442 17.9137 -3.4661 181.873 175.816 178.436
lowerback 5.02033 -1.26198 -3.26972
upperback -0.47184 -1.81863 1.99638
thorax -3.13714 -0.83344 4.04022
lowerneck -7.17332 -9.29426 -9.28958
upperneck 12.8285 -12.2848 5.89518
head 6.00135 -6.04922 2.35908
rclavicle 2.93207e-015 -2.5842e-015
rhumerus -33.0595 -28.4068 -69.826
rradius 22.1441
rwrist 13.4971
rhand -15.2938 -45.1869
rfingers 7.12502
rthumb 10.8814 -74.885
lclavicle 2.93207e-015 -2.5842e-015
lhumerus -43.8119 25.9831 74.9244
lradius 41.1183
lwrist -2.12711
lhand -15.8111 -6.858
lfingers 7.12502
lthumb 10.3824 22.8657
rfemur -0.0665847 0.290643 18.1484
rtibia 15.458
rfoot -14.3196 -10.2659
rtoes 8.89466
lfemur 2.7211 -1.60519 -13.2764
ltibia 10.1553
lfoot -13.8796 2.0381
ltoes -32.9363
600
root -0.296691 17.9148 -3.46412 181.87 175.797 178.406
lowerback 4.98453 -1.24064 -3.21928
upperback -0.464504 -1.78514 2.02744
thorax -3.11302 -0.818045 4.04036
lowerneck -7.07131 -9.27118 -9.26749
upperneck 12.7604 -12.2634 5.90848
head 5.96032 -6.03938 2.36818
rclavicle -3.27373e-015 2.56432e-014
rhumerus -33.0722 -28.6636 -69.5797
rradius 22.1606
rwrist 13.5674
rhand -15.3456 -45.4009
rfingers 7.12502
rthumb 10.8315 -75.1016
lclavicle -3.27373e-015 2.56432e-014
lhumerus -43.8151 25.8324 75.2053
lradius 41.3408
lwrist -2.07072
lhand -15.7708 -6.81292
lfingers 7.12502
lthumb 10.4213 22.9088
rfemur -0.0454921 0.329118 18.1858
rtibia 15.4383
rfoot -14.2953 -10.2864
rtoes 9.01231
lfemur 2.71388 -1.63371 -13.2493
ltibia 10.1756
lfoot -13.8882 2.05646
ltoes -33.1736
601
root -0.294099 17.9154 -3.46283 181.89 175.803 178.437
lowerback 4.92642 -1.21119 -3.21405
upperback -0.449615 -1.74345 2.04466
thorax -3.06842 -0.7985 4.05026
lowerneck -7.14233 -9.30893 -9.28304
upperneck 12.8664 -12.3089 5.8869
head 6.00901 -6.06159 2.3539
rclavicle -1.48219e-014 -1.55052e-014
rhumerus -32.9779 -28.8055 -69.3918
rradius 22.0863
rwrist 13.6026
rhand -15.3523 -45.6636
rfingers 7.12502
rthumb 10.8249 -75.3646
lclavicle -1.48219e-014 -1.55052e-014
lhumerus -43.769 25.655 75.5318
lradius 41.5624
lwrist -1.96152
lhand -15.7914 -6.59635
lfingers 7.12502
lthumb 10.4014 23.1264
rfemur -0.068622 0.334138 18.1402
rtibia 15.4562
rfoot -14.1866 -10.2451
rtoes 9.31776
lfemur 2.69153 -1.65247 -13.3049
ltibia 10.1915
lfoot -13.8906 2.08519
ltoes -33.2382
